<svg xmlns="http://www.w3.org/2000/svg" aria-hidden="true" style="position:absolute;width:0;height:0;overflow:hidden"><defs>
<symbol id="white-arrow" viewBox="0 0 29 24">
<path d="M28.0607 13.0607C28.6464 12.4749 28.6464 11.5251 28.0607 10.9393L18.5147 1.3934C17.9289 0.807611 16.9792 0.807611 16.3934 1.3934C15.8076 1.97919 15.8076 2.92893 16.3934 3.51472L24.8787 12L16.3934 20.4853C15.8076 21.0711 15.8076 22.0208 16.3934 22.6066C16.9792 23.1924 17.9289 23.1924 18.5147 22.6066L28.0607 13.0607ZM0 13.5H27V10.5H0V13.5Z" fill="white"/>
</symbol>
<symbol id="grey-arrow" viewBox="0 0 29 24">
<path d="M28.0607 13.0607C28.6464 12.4749 28.6464 11.5251 28.0607 10.9393L18.5147 1.3934C17.9289 0.807611 16.9792 0.807611 16.3934 1.3934C15.8076 1.97919 15.8076 2.92893 16.3934 3.51472L24.8787 12L16.3934 20.4853C15.8076 21.0711 15.8076 22.0208 16.3934 22.6066C16.9792 23.1924 17.9289 23.1924 18.5147 22.6066L28.0607 13.0607ZM0 13.5H27V10.5H0V13.5Z" fill="#6C6C6C"/>
</symbol>


  <symbol id="circle-grey" viewBox="0 0 59 59">
    <g filter="url(#filter0_d_1_116)">
      <circle cx="29.4324" cy="25.4325" r="25" transform="rotate(1 29.4324 25.4325)" fill="#D8D8D8"/>
      <circle cx="29.4324" cy="25.4325" r="23" transform="rotate(1 29.4324 25.4325)" stroke="white" stroke-opacity="0.8" stroke-width="4" stroke-linecap="round"/>
    </g>
    <defs>
      <filter id="filter0_d_1_116" x="0.432373" y="0.432434" width="58.0002" height="58.0002" filterUnits="userSpaceOnUse" color-interpolation-filters="sRGB">
        <feFlood flood-opacity="0" result="BackgroundImageFix"/>
        <feColorMatrix in="SourceAlpha" type="matrix" values="0 0 0 0 0 0 0 0 0 0 0 0 0 0 0 0 0 0 127 0" result="hardAlpha"/>
        <feOffset dy="4"/>
        <feGaussianBlur stdDeviation="2"/>
        <feComposite in2="hardAlpha" operator="out"/>
        <feColorMatrix type="matrix" values="0 0 0 0 0 0 0 0 0 0 0 0 0 0 0 0 0 0 0.25 0"/>
        <feBlend mode="normal" in2="BackgroundImageFix" result="effect1_dropShadow_1_116"/>
        <feBlend mode="normal" in="SourceGraphic" in2="effect1_dropShadow_1_116" result="shape"/>
      </filter>
    </defs>
  </symbol>
    <symbol id="circle-icon-green" viewBox="0 0 59 59">
    <g filter="url(#filter0_d_1_114)">
      <circle cx="29.4325" cy="25.4325" r="25" transform="rotate(1 29.4325 25.4325)" fill="#2FAC66"/>
      <circle cx="29.4325" cy="25.4325" r="23" transform="rotate(1 29.4325 25.4325)" stroke="white" stroke-opacity="0.8" stroke-width="4" stroke-linecap="round"/>
    </g>
    <defs>
      <filter id="filter0_d_1_114" x="0.432434" y="0.432434" width="58.0001" height="58.0002" filterUnits="userSpaceOnUse" color-interpolation-filters="sRGB">
        <feFlood flood-opacity="0" result="BackgroundImageFix"/>
        <feColorMatrix in="SourceAlpha" type="matrix" values="0 0 0 0 0 0 0 0 0 0 0 0 0 0 0 0 0 0 127 0" result="hardAlpha"/>
        <feOffset dy="4"/>
        <feGaussianBlur stdDeviation="2"/>
        <feComposite in2="hardAlpha" operator="out"/>
        <feColorMatrix type="matrix" values="0 0 0 0 0 0 0 0 0 0 0 0 0 0 0 0 0 0 0.25 0"/>
        <feBlend mode="normal" in2="BackgroundImageFix" result="effect1_dropShadow_1_114"/>
        <feBlend mode="normal" in="SourceGraphic" in2="effect1_dropShadow_1_114" result="shape"/>
      </filter>
    </defs>
  </symbol>

  <symbol id="circle-icon-blue" viewBox="0 0 59 59">
    <g filter="url(#filter0_d_1_115)">
      <circle cx="29.4325" cy="25.4325" r="25" transform="rotate(1 29.4325 25.4325)" fill="#6DC8E1"/>
      <circle cx="29.4325" cy="25.4325" r="23" transform="rotate(1 29.4325 25.4325)" stroke="white" stroke-opacity="0.8" stroke-width="4" stroke-linecap="round"/>
    </g>
    <defs>
      <filter id="filter0_d_1_115" x="0.432419" y="0.432434" width="58.0002" height="58.0002" filterUnits="userSpaceOnUse" color-interpolation-filters="sRGB">
        <feFlood flood-opacity="0" result="BackgroundImageFix"/>
        <feColorMatrix in="SourceAlpha" type="matrix" values="0 0 0 0 0 0 0 0 0 0 0 0 0 0 0 0 0 0 127 0" result="hardAlpha"/>
        <feOffset dy="4"/>
        <feGaussianBlur stdDeviation="2"/>
        <feComposite in2="hardAlpha" operator="out"/>
        <feColorMatrix type="matrix" values="0 0 0 0 0 0 0 0 0 0 0 0 0 0 0 0 0 0 0.25 0"/>
        <feBlend mode="normal" in2="BackgroundImageFix" result="effect1_dropShadow_1_115"/>
        <feBlend mode="normal" in="SourceGraphic" in2="effect1_dropShadow_1_115" result="shape"/>
      </filter>
    </defs>
  </symbol>
</defs></svg>